{"title":"Divergent.2014.HDRip.XviD-TODE","uid":10610935,"size":785049870,"categoryP":"video","categoryS":"movies","magnet":"?xt=urn:btih:b4a6e6cd16f5c0248f13be12b380ccb58491dd0d&amp;dn=Divergent.2014.HDRip.XviD-TODE&amp;tr=udp%3A%2F%2Ftracker.openbittorrent.com%3A80&amp;tr=udp%3A%2F%2Fopen.demonii.com%3A1337&amp;tr=udp%3A%2F%2Ftracker.coppersurfer.tk%3A6969&amp;tr=udp%3A%2F%2Fexodus.desync.com%3A6969","seeders":6,"leechers":3,"uploader":"xxxlavalxxx","files":-1,"time":1405989033,"description":"[IMG]http://i.imgur.com/oqgwunb.jpg[/IMG]\n &lt;a href=&quot;\nhttp://www.imdb.com/title/tt1840309/&quot; rel=&quot;nofollow&quot; target=&quot;_NEW&quot;&gt;\nhttp://www.imdb.com/title/tt1840309/&lt;/a&gt;\n\n\nIn a world divided by factions based on virtues, Tris learns she's Divergent and won't fit in. When she discovers a plot to destroy Divergents, Tris and the mysterious Four must find out what makes Divergents dangerous before it's too late.\n\nDirector: Neil Burger\nWriters: Evan Daugherty (screenplay), Vanessa Taylor (screenplay)\nStars: Shailene Woodley, Theo James, Kate Winslet\nGenres: Action | Adventure | Sci-Fi\nCountry: USA\nLanguage: English\n\n\nThanks: WEB-DL 720p EVO\n\n\nFormat : AVI\nFormat/Info : Audio Video Interleave\nFile size : 703 MiB\nDuration : 2h 19mn\nOverall bit rate : 704 Kbps\nWriting library : VirtualDub build 32842/release\n\nVideo\nID : 0\nFormat : MPEG-4 Visual\nFormat profile : Advanced Simple@L5\nFormat settings, BVOP : 2\nFormat settings, QPel : No\nFormat settings, GMC : No warppoints\nFormat settings, Matrix : Default (H.263)\nMuxing mode : Packed bitstream\nCodec ID : XVID\nCodec ID/Hint : XviD\nDuration : 2h 19mn\nBit rate : 566 Kbps\nWidth : 720 pixels\nHeight : 298 pixels\nDisplay aspect ratio : 2.40:1\nFrame rate : 23.976 fps\nColor space : YUV\nChroma subsampling : 4:2:0\nBit depth : 8 bits\nScan type : Progressive\nCompression mode : Lossy\nBits/(Pixel*Frame) : 0.110\nStream size : 566 MiB (80%)\nWriting library : XviD 64\n\nAudio\nID : 1\nFormat : MPEG Audio\nFormat version : Version 1\nFormat profile : Layer 3\nMode : Joint stereo\nMode extension : MS Stereo\nCodec ID : 55\nCodec ID/Hint : MP3\nDuration : 2h 19mn\nBit rate mode : Constant\nBit rate : 128 Kbps\nChannel(s) : 2 channels\nSampling rate : 32.0 KHz\nCompression mode : Lossy\nStream size : 128 MiB (18%)\nAlignment : Split accross interleaves\nInterleave, duration : 42 ms (1.00 video frame)\nInterleave, preload duration : 500 ms\n\n\nscreens\n &lt;a href=&quot;\nhttp://i.imgur.com/6e5q5pN.jpg&quot; rel=&quot;nofollow&quot; target=&quot;_NEW&quot;&gt;\nhttp://i.imgur.com/6e5q5pN.jpg&lt;/a&gt; &lt;a href=&quot;\nhttp://i.imgur.com/sATJ7Mq.jpg&quot; rel=&quot;nofollow&quot; target=&quot;_NEW&quot;&gt;\nhttp://i.imgur.com/sATJ7Mq.jpg&lt;/a&gt; &lt;a href=&quot;\nhttp://i.imgur.com/kEZuR4V.jpg&quot; rel=&quot;nofollow&quot; target=&quot;_NEW&quot;&gt;\nhttp://i.imgur.com/kEZuR4V.jpg&lt;/a&gt; &lt;a href=&quot;\nhttp://i.imgur.com/xbAafVD.jpg&quot; rel=&quot;nofollow&quot; target=&quot;_NEW&quot;&gt;\nhttp://i.imgur.com/xbAafVD.jpg&lt;/a&gt; &lt;a href=&quot;\nhttp://i.imgur.com/UTmLQyv.jpg&quot; rel=&quot;nofollow&quot; target=&quot;_NEW&quot;&gt;\nhttp://i.imgur.com/UTmLQyv.jpg&lt;/a&gt;\n","torrent":{"xt":"urn:btih:b4a6e6cd16f5c0248f13be12b380ccb58491dd0d","amp;dn":"Divergent.2014.HDRip.XviD-TODE","amp;tr":["udp%3A%2F%2Ftracker.openbittorrent.com%3A80","udp%3A%2F%2Fopen.demonii.com%3A1337","udp%3A%2F%2Ftracker.coppersurfer.tk%3A6969","udp%3A%2F%2Fexodus.desync.com%3A6969"],"infoHash":"b4a6e6cd16f5c0248f13be12b380ccb58491dd0d","infoHashBuffer":{"type":"Buffer","data":[180,166,230,205,22,245,192,36,143,19,190,18,179,128,204,181,132,145,221,13]},"announce":[],"urlList":[]}}